<?xml version="1.0" encoding="UTF-8"?>
<svg id="Layer_2" data-name="Layer 2" xmlns="http://www.w3.org/2000/svg" viewBox="0 0 341.3 268.91">
  <path fill="#000000" d="M114.6,49.21c-.99,1.07-8.35,3.38-10.75,4.72-4.15,2.32-8.03,5.26-10.79,9.19-8.71,12.39-14.16,60.78-10.96,75.57,1.42,6.57,8.31,5.36,11.64,1.08,6.66-8.55,15.48-24.8,21.28-34.68,17.61-30,33.25-62.66,51.96-91.94,1.87-2.93,7.47-11.58,10.5-12.48,3.57-1.06,29.73-.69,34.74-.19,14.96,1.48,6.51,13.25,2.03,22-8.63,16.86-20.06,33.14-29.04,49.91-3.12,6.95,5.78,6.73,11,7.09,25.92,1.77,53.72-2.28,80.94-.03,18.52,1.53,35.34,10.87,38.46,30.48-2.15,38.4,2.9,79.95.05,117.97-2.3,30.7-19.95,39.92-48.48,39.43-25.76-.44-51.03-1.54-76.97-1.03-19.44.38-40.48,3.9-59.93,2.08-11.44-1.07-11.81-7.78-11.49-17.57.1-3.16,2.2-22.58,3.11-23.87,1.18-1.66,11.3-2.45,14.37-2.61,39.13-2.1,80.05,1.16,118.9-2.97,6.55-.7,9.92-1.53,10.55-8.44,2.43-26.66-1.92-56.96-.03-84.02l-1.51-4.49c-1.07-1.03-3.74-1.49-5.27-1.72-13.72-2.07-49.17-1.45-63.7-.31-7.69.61-13.44,2.48-18.42,8.56-3.35,4.09-10.69,19.9-2.5,21.43l65,.93c1.22.96,1.26,2.15,1.45,3.55.53,4.03.37,38.72-.53,40.54-2.44,2.81-7.4,2.56-10.95,3.03l-194.86.44c-1.19-.06-3.38-.49-4.02-1.45-1.38-2.06-.58-43.27-.5-49.56.76-63.49-6.19-103.37,56.32-136.56,7.95-4.22,29.98-17.9,31.63-2.33.65,6.18-.44,22.22-1.01,28.97-.16,1.84-1.25,8.2-2.23,9.27Z"/>
</svg>
