<?xml version="1.0" encoding="UTF-8"?>
<svg id="Layer_1" data-name="Layer 1" xmlns="http://www.w3.org/2000/svg" viewBox="0 0 341.3 106.55" fill="white">
  <path d="M165.65,96.48h-18.66c-1.36,0-4.08-1.45-5.13-2.36-4.91-4.23-3.52-11.4,1.88-14.42h11.73l.24.24v4.24l-.24.24h-7.82c-.1,0-1.27.56-1.44.68-1.61,1.1-1.63,3.25-.11,4.46.41.33,1.55.89,2.04.89h11.49v-10.84c0-.09-.23-1.01-.29-1.18-.53-1.54-2.13-2.71-3.78-2.65v-6.03c4.13-.24,8.03,2.64,9.45,6.43.18.49.65,1.85.65,2.28v18Z"/>
  <path d="M10.27,69.76v6.03c-1.31-.02-2.67.65-3.39,1.74-.12.18-.68,1.34-.68,1.44v11.49h2.77l11.73-20.69h6.19l-15.32,26.72H0v-17.35c0-.42.28-1.56.41-2.03,1.11-4.24,5.4-7.65,9.86-7.33Z"/>
  <path d="M136.96,96.48h-6.03v-7.09c0-1.33-1.99-3.5-3.34-3.5h-11.32v10.59c-2.53-.9-4.65-3.26-5.54-5.78-.24-.68-.65-2.1-.65-2.77v-7.98l.24-.24h16.95c4.15,0,9.69,4.4,9.69,8.72v8.07Z"/>
  <path d="M75.65,69.97v17.52c0,.1.44,1.07.55,1.25.71,1.17,2.12,2.06,3.53,1.93v6.19c-4.34.07-8.53-2.94-9.77-7.1-.14-.48-.5-1.86-.5-2.27v-17.52h6.19Z"/>
  <path d="M37.36,85.89h-3.1v10.59h-6.19v-16.78c3.96.08,7.86,2.45,9.29,6.19Z"/>
  <path d="M33.93,75.2c-.69.69-2.82.68-3.76.53-2.17-.34-2.43-4.27-.64-5.18.52-.26,2.91-.28,3.55-.17,1.82.29,2.02,3.64.85,4.82Z"/>
  <path d="M107.8,89.31h-18.9c.47.73,1.54,1.06,2.36,1.14,3.5.35,7.49-.28,11.04.03l5.98,6h-18.49c-1.14,0-3.74-1.44-4.65-2.2s-3.26-3.75-3.26-4.89v-9.45l.24-.24h16.62c2.68,0,5.78,1.77,7.39,3.86.32.42,1.66,2.69,1.66,3.07v2.69ZM100.79,86.87c-.14-.43-1.37-.98-1.71-.98h-10.35v.98h12.06Z"/>
  <path d="M48.46,79.79c3.26-.22,9.53-.36,12.54.56,8.45,2.58,7.93,14.11-.94,15.94-2.64.54-10.29.5-13.1.22-10.51-1.05-11.38-15.85,1.49-16.71ZM47.64,85.98c-3.97.54-3.61,4.2.6,4.53,2.09.16,9.24.26,10.97-.28,2.67-.84,2.38-3.42-.23-4.1-1.59-.42-9.53-.38-11.35-.14Z"/>
  <path d="M296.07,86.02c-2.44-.08-4.37,2.15-4.07,4.56h8.39l6.35-10.75h5.95l-9.45,16.78h-17.43v-7.25c0-3.91,3.69-8.1,7.37-9.09.52-.14,2.05-.46,2.51-.44.15,0,.39.14.39.24v5.95Z"/>
  <path d="M188.68,85.85h-11.65c-.1,0-1.16.37-1.33.46-2.28,1.1-2.15,4.11.1,5.17.18.09.96.4,1.07.4h7.66l.24.24v4.32h-12.3c-8.41-6.04-4.59-16.21,5.54-16.78,5.28-.3,10.83.23,16.14,0l.56.25v17.92c0,3.53-5.02,8.72-8.55,8.72h-12.06l-.24-.24v-5.54l.24-.24h11.08c1.53,0,3.5-2.33,3.5-3.83v-10.84Z"/>
  <path d="M223.82,90.09h-6.03c-.13-1.56-.73-2.88-2.17-3.61-.21-.11-1.02-.46-1.17-.46h-11.32v10.59h-6.19v-16.54l.24-.24h16.95c1.04,0,2.92.55,3.89,1,3.5,1.62,5.99,5.35,5.81,9.26Z"/>
  <path d="M340.81,89.25h-18.9c.47.73,1.54,1.06,2.36,1.14,3.5.35,7.49-.28,11.04.03l5.98,6h-18.49c-1.14,0-3.74-1.44-4.65-2.2s-3.26-3.75-3.26-4.89v-9.45l.24-.24h16.62c2.68,0,5.78,1.77,7.39,3.86.32.42,1.66,2.69,1.66,3.07v2.69ZM333.81,86.81c-.14-.43-1.37-.98-1.71-.98h-10.35v.98h12.06Z"/>
  <path d="M235.1,79.85c3.26-.22,9.53-.36,12.54.56,8.45,2.58,7.93,14.11-.94,15.94-2.64.54-10.29.5-13.1.22-10.51-1.05-11.38-15.85,1.49-16.71ZM234.28,86.04c-3.97.54-3.61,4.2.6,4.53,2.09.16,9.24.26,10.97-.28,2.67-.84,2.38-3.42-.23-4.1-1.59-.42-9.53-.38-11.35-.14Z"/>
  <path d="M265.15,79.84c3.26-.22,9.53-.36,12.54.56,8.45,2.58,7.93,14.11-.94,15.94-2.64.54-10.29.5-13.1.22-10.51-1.05-11.38-15.85,1.49-16.71ZM264.33,86.03c-3.97.54-3.61,4.2.6,4.53,2.09.16,9.24.26,10.97-.28,2.67-.84,2.38-3.42-.23-4.1-1.59-.42-9.53-.38-11.35-.14Z"/>
</svg>